<svg width="402" height="85" viewBox="0 0 402 85" fill="none" xmlns="http://www.w3.org/2000/svg">
<g clip-path="url(#clip0_1_23)">
<path d="M187.644 26.6139H215.356C215.724 26.6185 216.082 26.5032 216.364 26.2887C216.647 26.0743 216.835 25.775 216.896 25.445L219.975 8.64648C220.028 8.38153 219.996 8.10834 219.882 7.85967C219.769 7.61099 219.579 7.39739 219.335 7.24446C219.091 7.09154 218.804 7.00578 218.508 6.99747C218.212 6.98915 217.92 7.05864 217.666 7.1976L208.374 12.0342L202.909 0.835138C202.788 0.586728 202.591 0.375529 202.341 0.227259C202.091 0.0789881 201.799 4.57764e-05 201.5 4.57764e-05C201.201 4.57764e-05 200.909 0.0789881 200.659 0.227259C200.409 0.375529 200.212 0.586728 200.091 0.835138L194.626 12.0342L185.334 7.1976C185.08 7.05864 184.788 6.98915 184.492 6.99747C184.196 7.00578 183.909 7.09154 183.665 7.24446C183.421 7.39739 183.231 7.61099 183.118 7.85967C183.004 8.10834 182.972 8.38153 183.025 8.64648L186.104 25.445C186.165 25.775 186.353 26.0743 186.636 26.2887C186.918 26.5032 187.276 26.6185 187.644 26.6139V26.6139ZM194.572 15.2329C194.758 15.329 194.965 15.3887 195.178 15.4079C195.392 15.4272 195.607 15.4058 195.811 15.3449C196.017 15.2843 196.206 15.185 196.366 15.0535C196.527 14.9221 196.655 14.7614 196.743 14.582L201.5 4.8598L206.25 14.582C206.337 14.7614 206.466 14.9221 206.626 15.0535C206.787 15.185 206.976 15.2843 207.181 15.3449C207.386 15.4068 207.603 15.4288 207.818 15.4095C208.033 15.3902 208.241 15.33 208.428 15.2329L216.388 11.0963L214.055 23.8142H188.944L186.635 11.0963L194.572 15.2329Z" fill="#565656" fill-opacity="0.98"/>
</g>
<path d="M82.876 56.065L91.68 66.419C92.114 66.8323 92.548 67.1423 92.982 67.349C93.4366 67.5557 93.9843 67.6693 94.625 67.69V68H93.292C93.0853 68 92.7856 67.9897 92.393 67.969C92.021 67.9277 91.6076 67.8553 91.153 67.752C90.719 67.628 90.2746 67.4523 89.82 67.225C89.386 66.977 88.9933 66.6463 88.642 66.233C88.642 66.233 88.456 66.016 88.084 65.582C87.7326 65.148 87.2676 64.59 86.689 63.908C86.131 63.226 85.5316 62.5027 84.891 61.738C84.271 60.9527 83.6716 60.219 83.093 59.537C82.535 58.855 82.07 58.297 81.698 57.863C81.3466 57.429 81.171 57.212 81.171 57.212L82.876 56.065ZM91.835 46.517L82.566 57.212H81.171L89.696 46.517H91.835ZM93.974 46.3V46.579H93.85C93.168 46.579 92.5273 46.7133 91.928 46.982C91.3493 47.2507 90.8533 47.6227 90.44 48.098L88.487 48.036C88.7556 47.6847 88.797 47.354 88.611 47.044C88.4456 46.734 88.1563 46.579 87.743 46.579H87.433V46.3H93.85H93.974ZM80.179 46.3V68H78.164V46.3H80.179ZM78.257 65.737V68H75.777V67.69C75.777 67.69 75.839 67.69 75.963 67.69C76.1076 67.69 76.18 67.69 76.18 67.69C76.7173 67.69 77.172 67.504 77.544 67.132C77.9366 66.7393 78.1433 66.2743 78.164 65.737H78.257ZM78.257 48.563H78.164C78.1433 48.0257 77.9366 47.571 77.544 47.199C77.172 46.8063 76.7173 46.61 76.18 46.61C76.18 46.61 76.1076 46.61 75.963 46.61C75.839 46.61 75.777 46.61 75.777 46.61V46.3H78.257V48.563ZM80.086 65.737H80.179C80.1996 66.2743 80.396 66.7393 80.768 67.132C81.1606 67.504 81.6256 67.69 82.163 67.69C82.163 67.69 82.225 67.69 82.349 67.69C82.473 67.69 82.5453 67.69 82.566 67.69V68H80.086V65.737ZM80.086 48.563V46.3H82.566V46.61C82.5453 46.61 82.473 46.61 82.349 46.61C82.225 46.61 82.163 46.61 82.163 46.61C81.6256 46.61 81.1606 46.8063 80.768 47.199C80.396 47.571 80.1996 48.0257 80.179 48.563H80.086ZM113.573 49.4V68H111.589V49.4H113.573ZM100.15 49.4V68H98.166V49.4H100.15ZM111.899 58.359V59.289H99.809V58.359H111.899ZM98.259 66.016V68H95.996V67.69C95.996 67.69 96.058 67.69 96.182 67.69C96.306 67.69 96.368 67.69 96.368 67.69C96.864 67.69 97.2773 67.5247 97.608 67.194C97.9593 66.8633 98.1453 66.4707 98.166 66.016H98.259ZM100.057 66.016H100.15C100.15 66.4707 100.326 66.8633 100.677 67.194C101.028 67.5247 101.452 67.69 101.948 67.69C101.948 67.69 102.01 67.69 102.134 67.69C102.258 67.69 102.32 67.69 102.32 67.69V68H100.057V66.016ZM100.057 51.384V49.4H102.32V49.71C102.32 49.71 102.258 49.71 102.134 49.71C102.01 49.71 101.948 49.71 101.948 49.71C101.452 49.71 101.028 49.8753 100.677 50.206C100.326 50.516 100.15 50.9087 100.15 51.384H100.057ZM98.259 51.384H98.166C98.1453 50.9087 97.9593 50.516 97.608 50.206C97.2773 49.8753 96.864 49.71 96.368 49.71C96.368 49.71 96.306 49.71 96.182 49.71C96.058 49.71 95.996 49.71 95.996 49.71V49.4H98.259V51.384ZM111.682 66.016V68H109.419V67.69C109.419 67.69 109.481 67.69 109.605 67.69C109.729 67.69 109.791 67.69 109.791 67.69C110.287 67.69 110.7 67.5247 111.031 67.194C111.382 66.8633 111.568 66.4707 111.589 66.016H111.682ZM113.48 66.016H113.573C113.594 66.4707 113.769 66.8633 114.1 67.194C114.451 67.5247 114.875 67.69 115.371 67.69C115.371 67.69 115.433 67.69 115.557 67.69C115.681 67.69 115.743 67.69 115.743 67.69V68H113.48V66.016ZM113.48 51.384V49.4H115.743V49.71C115.743 49.71 115.681 49.71 115.557 49.71C115.433 49.71 115.371 49.71 115.371 49.71C114.875 49.71 114.451 49.8753 114.1 50.206C113.769 50.516 113.594 50.9087 113.573 51.384H113.48ZM111.682 51.384H111.589C111.568 50.9087 111.382 50.516 111.031 50.206C110.7 49.8753 110.287 49.71 109.791 49.71C109.791 49.71 109.729 49.71 109.605 49.71C109.481 49.71 109.419 49.71 109.419 49.71V49.4H111.682V51.384ZM127.836 48.966L136.361 67.814H133.912L127.309 51.725L127.836 48.966ZM121.853 65.737C121.626 66.357 121.657 66.8427 121.946 67.194C122.235 67.5247 122.566 67.69 122.938 67.69H123.186V68H117.265V67.69C117.265 67.69 117.306 67.69 117.389 67.69C117.472 67.69 117.513 67.69 117.513 67.69C117.947 67.69 118.391 67.5453 118.846 67.256C119.301 66.946 119.693 66.4397 120.024 65.737H121.853ZM127.836 48.966L128.053 51.105L120.954 67.907H119.001L126.348 52.159C126.348 52.159 126.4 52.035 126.503 51.787C126.627 51.539 126.761 51.2393 126.906 50.888C127.071 50.516 127.216 50.1543 127.34 49.803C127.464 49.4517 127.536 49.1727 127.557 48.966H127.836ZM131.494 60.777V61.707H123.279V60.777H131.494ZM133.075 65.737H135.431C135.741 66.4397 136.123 66.946 136.578 67.256C137.033 67.5453 137.467 67.69 137.88 67.69C137.88 67.69 137.921 67.69 138.004 67.69C138.087 67.69 138.128 67.69 138.128 67.69V68H131.773V67.69H132.021C132.372 67.69 132.693 67.5247 132.982 67.194C133.271 66.8427 133.302 66.357 133.075 65.737ZM141.324 48.935L158.498 65.117L158.808 68.434L141.634 52.159L141.324 48.935ZM141.386 66.078V68H139.061V67.69C139.061 67.69 139.143 67.69 139.309 67.69C139.495 67.69 139.588 67.69 139.588 67.69C140.063 67.69 140.466 67.535 140.797 67.225C141.127 66.915 141.293 66.5327 141.293 66.078H141.386ZM142.688 66.078C142.688 66.5327 142.853 66.915 143.184 67.225C143.535 67.535 143.938 67.69 144.393 67.69C144.393 67.69 144.475 67.69 144.641 67.69C144.827 67.69 144.92 67.69 144.92 67.69V68H142.595V66.078H142.688ZM141.324 48.935L142.657 50.671L142.688 68H141.293V52.81C141.293 51.756 141.241 50.8467 141.138 50.082C141.055 49.3173 141.014 48.935 141.014 48.935H141.324ZM158.808 49.4V64.466C158.808 65.1273 158.828 65.768 158.87 66.388C158.911 66.9873 158.952 67.4833 158.994 67.876C159.056 68.248 159.087 68.434 159.087 68.434H158.808L157.444 66.791V49.4H158.808ZM158.715 51.322V49.4H161.04V49.71C161.04 49.71 160.947 49.71 160.761 49.71C160.595 49.71 160.513 49.71 160.513 49.71C160.058 49.71 159.655 49.865 159.304 50.175C158.973 50.485 158.808 50.8673 158.808 51.322H158.715ZM157.444 51.322C157.423 50.8673 157.247 50.485 156.917 50.175C156.586 49.865 156.183 49.71 155.708 49.71C155.708 49.71 155.615 49.71 155.429 49.71C155.263 49.71 155.181 49.71 155.181 49.71V49.4H157.506V51.322H157.444ZM178.254 48.966C178.254 48.966 178.254 49.0177 178.254 49.121C178.254 49.2037 178.254 49.245 178.254 49.245L165.854 68H163.684V67.721L175.247 50.299H164.149V49.369H174.751C175.185 49.369 175.65 49.3483 176.146 49.307C176.642 49.2657 177.086 49.214 177.479 49.152C177.871 49.09 178.13 49.028 178.254 48.966ZM178.533 67.07L178.316 68H165.699V67.07H178.533ZM180.207 63.567L178.533 68H173.883L174.937 67.07C175.949 67.0493 176.755 66.8943 177.355 66.605C177.975 66.3157 178.481 65.9127 178.874 65.396C179.266 64.8587 179.607 64.249 179.897 63.567H180.207ZM164.149 50.237H166.04V50.299C165.585 50.3197 165.213 50.485 164.924 50.795C164.634 51.0843 164.49 51.4563 164.49 51.911V52.376H164.149V50.237ZM164.149 48.873C164.335 48.935 164.624 49.0073 165.017 49.09C165.409 49.152 165.833 49.214 166.288 49.276C166.763 49.3173 167.207 49.3483 167.621 49.369L164.149 49.679V48.873ZM191.41 48.966L199.935 67.814H197.486L190.883 51.725L191.41 48.966ZM185.427 65.737C185.2 66.357 185.231 66.8427 185.52 67.194C185.809 67.5247 186.14 67.69 186.512 67.69H186.76V68H180.839V67.69C180.839 67.69 180.88 67.69 180.963 67.69C181.046 67.69 181.087 67.69 181.087 67.69C181.521 67.69 181.965 67.5453 182.42 67.256C182.875 66.946 183.267 66.4397 183.598 65.737H185.427ZM191.41 48.966L191.627 51.105L184.528 67.907H182.575L189.922 52.159C189.922 52.159 189.974 52.035 190.077 51.787C190.201 51.539 190.335 51.2393 190.48 50.888C190.645 50.516 190.79 50.1543 190.914 49.803C191.038 49.4517 191.11 49.1727 191.131 48.966H191.41ZM195.068 60.777V61.707H186.853V60.777H195.068ZM196.649 65.737H199.005C199.315 66.4397 199.697 66.946 200.152 67.256C200.607 67.5453 201.041 67.69 201.454 67.69C201.454 67.69 201.495 67.69 201.578 67.69C201.661 67.69 201.702 67.69 201.702 67.69V68H195.347V67.69H195.595C195.946 67.69 196.267 67.5247 196.556 67.194C196.845 66.8427 196.876 66.357 196.649 65.737ZM208.804 48.966C209.382 48.966 209.889 48.9867 210.323 49.028C210.757 49.0693 211.129 49.121 211.439 49.183C211.769 49.2243 212.048 49.2863 212.276 49.369C212.524 49.431 212.741 49.493 212.927 49.555L212.958 52.624H212.586C212.586 51.7767 212.296 51.1153 211.718 50.64C211.139 50.144 210.24 49.896 209.021 49.896C207.987 49.896 207.099 50.1853 206.355 50.764C205.631 51.322 205.28 52.0143 205.301 52.841C205.301 53.1097 205.332 53.3887 205.394 53.678C205.476 53.9467 205.6 54.2153 205.766 54.484C205.952 54.7527 206.2 55.0213 206.51 55.29L212.772 60.126C213.247 60.5187 213.598 61.025 213.826 61.645C214.053 62.2443 214.177 62.8437 214.198 63.443C214.218 64.3523 213.981 65.1893 213.485 65.954C212.989 66.7187 212.317 67.3283 211.47 67.783C210.643 68.217 209.723 68.434 208.711 68.434C208.111 68.434 207.46 68.3823 206.758 68.279C206.076 68.1757 205.435 68.0207 204.836 67.814C204.236 67.5867 203.74 67.3077 203.348 66.977C203.286 66.6877 203.255 66.326 203.255 65.892C203.255 65.4373 203.286 64.962 203.348 64.466C203.43 63.97 203.534 63.5257 203.658 63.133H204.03C203.947 64.063 204.081 64.8587 204.433 65.52C204.784 66.1813 205.301 66.6877 205.983 67.039C206.665 67.3697 207.46 67.5247 208.37 67.504C209.651 67.4627 210.653 67.1423 211.377 66.543C212.121 65.923 212.493 65.1067 212.493 64.094C212.493 63.598 212.4 63.1537 212.214 62.761C212.048 62.3477 211.769 61.9653 211.377 61.614L205.177 56.84C204.598 56.344 204.205 55.7963 203.999 55.197C203.792 54.5977 203.689 54.0293 203.689 53.492C203.689 52.6447 203.916 51.88 204.371 51.198C204.825 50.516 205.435 49.9787 206.2 49.586C206.985 49.1727 207.853 48.966 208.804 48.966ZM212.896 49.245L212.927 49.803H210.726V49.245H212.896ZM245.629 58.948L245.257 63.815C244.72 64.7037 244.038 65.4993 243.211 66.202C242.405 66.884 241.444 67.4317 240.328 67.845C239.233 68.2377 237.972 68.434 236.546 68.434C234.397 68.4133 232.485 67.938 230.811 67.008C229.137 66.078 227.825 64.776 226.874 63.102C225.944 61.4073 225.479 59.413 225.479 57.119C225.479 54.8663 225.944 52.903 226.874 51.229C227.804 49.5343 229.106 48.222 230.78 47.292C232.475 46.3413 234.459 45.866 236.732 45.866C238.261 45.866 239.636 46.0727 240.855 46.486C242.095 46.8787 243.17 47.3747 244.079 47.974L244.699 52.345H244.42C243.965 50.5263 243.035 49.152 241.63 48.222C240.225 47.2713 238.592 46.796 236.732 46.796C234.913 46.796 233.332 47.23 231.989 48.098C230.666 48.9453 229.633 50.144 228.889 51.694C228.166 53.2233 227.804 55.0213 227.804 57.088C227.804 59.1547 228.166 60.963 228.889 62.513C229.633 64.063 230.656 65.272 231.958 66.14C233.281 67.008 234.81 67.4627 236.546 67.504C238.013 67.504 239.367 67.2353 240.607 66.698C241.868 66.14 242.922 65.241 243.769 64.001C244.616 62.7403 245.154 61.056 245.381 58.948H245.629ZM257.588 48.966L266.113 67.814H263.664L257.061 51.725L257.588 48.966ZM251.605 65.737C251.378 66.357 251.409 66.8427 251.698 67.194C251.987 67.5247 252.318 67.69 252.69 67.69H252.938V68H247.017V67.69C247.017 67.69 247.058 67.69 247.141 67.69C247.224 67.69 247.265 67.69 247.265 67.69C247.699 67.69 248.143 67.5453 248.598 67.256C249.053 66.946 249.445 66.4397 249.776 65.737H251.605ZM257.588 48.966L257.805 51.105L250.706 67.907H248.753L256.1 52.159C256.1 52.159 256.152 52.035 256.255 51.787C256.379 51.539 256.513 51.2393 256.658 50.888C256.823 50.516 256.968 50.1543 257.092 49.803C257.216 49.4517 257.288 49.1727 257.309 48.966H257.588ZM261.246 60.777V61.707H253.031V60.777H261.246ZM262.827 65.737H265.183C265.493 66.4397 265.875 66.946 266.33 67.256C266.785 67.5453 267.219 67.69 267.632 67.69C267.632 67.69 267.673 67.69 267.756 67.69C267.839 67.69 267.88 67.69 267.88 67.69V68H261.525V67.69H261.773C262.124 67.69 262.445 67.5247 262.734 67.194C263.023 66.8427 263.054 66.357 262.827 65.737ZM273.649 49.4V68H271.665V49.4H273.649ZM281.988 67.039L281.926 68H273.587V67.039H281.988ZM283.724 63.567L282.019 68H277.307L278.361 67.039C279.394 67.039 280.221 66.8943 280.841 66.605C281.481 66.295 281.998 65.8817 282.391 65.365C282.783 64.8277 283.124 64.2283 283.414 63.567H283.724ZM271.727 66.016L272.13 68H269.433V67.69C269.433 67.69 269.505 67.69 269.65 67.69C269.794 67.69 269.867 67.69 269.867 67.69C270.383 67.69 270.807 67.5247 271.138 67.194C271.468 66.8633 271.644 66.4707 271.665 66.016H271.727ZM273.556 51.384V49.4H275.85V49.71C275.85 49.71 275.788 49.71 275.664 49.71C275.54 49.71 275.478 49.71 275.478 49.71C274.982 49.71 274.548 49.8753 274.176 50.206C273.824 50.516 273.649 50.9087 273.649 51.384H273.556ZM271.727 51.384H271.665C271.644 50.9087 271.458 50.516 271.107 50.206C270.755 49.8753 270.321 49.71 269.805 49.71C269.805 49.71 269.743 49.71 269.619 49.71C269.495 49.71 269.433 49.71 269.433 49.71V49.4H271.727V51.384ZM300.468 48.966C300.468 48.966 300.468 49.0177 300.468 49.121C300.468 49.2037 300.468 49.245 300.468 49.245L288.068 68H285.898V67.721L297.461 50.299H286.363V49.369H296.965C297.399 49.369 297.864 49.3483 298.36 49.307C298.856 49.2657 299.3 49.214 299.693 49.152C300.085 49.09 300.344 49.028 300.468 48.966ZM300.747 67.07L300.53 68H287.913V67.07H300.747ZM302.421 63.567L300.747 68H296.097L297.151 67.07C298.163 67.0493 298.969 66.8943 299.569 66.605C300.189 66.3157 300.695 65.9127 301.088 65.396C301.48 64.8587 301.821 64.249 302.111 63.567H302.421ZM286.363 50.237H288.254V50.299C287.799 50.3197 287.427 50.485 287.138 50.795C286.848 51.0843 286.704 51.4563 286.704 51.911V52.376H286.363V50.237ZM286.363 48.873C286.549 48.935 286.838 49.0073 287.231 49.09C287.623 49.152 288.047 49.214 288.502 49.276C288.977 49.3173 289.421 49.3483 289.835 49.369L286.363 49.679V48.873ZM313.624 48.966L322.149 67.814H319.7L313.097 51.725L313.624 48.966ZM307.641 65.737C307.414 66.357 307.445 66.8427 307.734 67.194C308.023 67.5247 308.354 67.69 308.726 67.69H308.974V68H303.053V67.69C303.053 67.69 303.094 67.69 303.177 67.69C303.26 67.69 303.301 67.69 303.301 67.69C303.735 67.69 304.179 67.5453 304.634 67.256C305.089 66.946 305.481 66.4397 305.812 65.737H307.641ZM313.624 48.966L313.841 51.105L306.742 67.907H304.789L312.136 52.159C312.136 52.159 312.188 52.035 312.291 51.787C312.415 51.539 312.549 51.2393 312.694 50.888C312.859 50.516 313.004 50.1543 313.128 49.803C313.252 49.4517 313.324 49.1727 313.345 48.966H313.624ZM317.282 60.777V61.707H309.067V60.777H317.282ZM318.863 65.737H321.219C321.529 66.4397 321.911 66.946 322.366 67.256C322.821 67.5453 323.255 67.69 323.668 67.69C323.668 67.69 323.709 67.69 323.792 67.69C323.875 67.69 323.916 67.69 323.916 67.69V68H317.561V67.69H317.809C318.16 67.69 318.481 67.5247 318.77 67.194C319.059 66.8427 319.09 66.357 318.863 65.737ZM331.018 48.966C331.596 48.966 332.103 48.9867 332.537 49.028C332.971 49.0693 333.343 49.121 333.653 49.183C333.983 49.2243 334.262 49.2863 334.49 49.369C334.738 49.431 334.955 49.493 335.141 49.555L335.172 52.624H334.8C334.8 51.7767 334.51 51.1153 333.932 50.64C333.353 50.144 332.454 49.896 331.235 49.896C330.201 49.896 329.313 50.1853 328.569 50.764C327.845 51.322 327.494 52.0143 327.515 52.841C327.515 53.1097 327.546 53.3887 327.608 53.678C327.69 53.9467 327.814 54.2153 327.98 54.484C328.166 54.7527 328.414 55.0213 328.724 55.29L334.986 60.126C335.461 60.5187 335.812 61.025 336.04 61.645C336.267 62.2443 336.391 62.8437 336.412 63.443C336.432 64.3523 336.195 65.1893 335.699 65.954C335.203 66.7187 334.531 67.3283 333.684 67.783C332.857 68.217 331.937 68.434 330.925 68.434C330.325 68.434 329.674 68.3823 328.972 68.279C328.29 68.1757 327.649 68.0207 327.05 67.814C326.45 67.5867 325.954 67.3077 325.562 66.977C325.5 66.6877 325.469 66.326 325.469 65.892C325.469 65.4373 325.5 64.962 325.562 64.466C325.644 63.97 325.748 63.5257 325.872 63.133H326.244C326.161 64.063 326.295 64.8587 326.647 65.52C326.998 66.1813 327.515 66.6877 328.197 67.039C328.879 67.3697 329.674 67.5247 330.584 67.504C331.865 67.4627 332.867 67.1423 333.591 66.543C334.335 65.923 334.707 65.1067 334.707 64.094C334.707 63.598 334.614 63.1537 334.428 62.761C334.262 62.3477 333.983 61.9653 333.591 61.614L327.391 56.84C326.812 56.344 326.419 55.7963 326.213 55.197C326.006 54.5977 325.903 54.0293 325.903 53.492C325.903 52.6447 326.13 51.88 326.585 51.198C327.039 50.516 327.649 49.9787 328.414 49.586C329.199 49.1727 330.067 48.966 331.018 48.966ZM335.11 49.245L335.141 49.803H332.94V49.245H335.11Z" fill="black"/>
<line x1="401.4" y1="17.5" x2="240" y2="17.5" stroke="black"/>
<line x1="161.4" y1="17.5" x2="4.37114e-08" y2="17.5" stroke="black"/>
<defs>
<clipPath id="clip0_1_23">
<rect width="37" height="26.614" fill="white" transform="translate(183)"/>
</clipPath>
</defs>
</svg>
